HIERARCHY
ROOT Hips
{
  OFFSET 0.163577 18.0439 0.220624
  CHANNELS 6 Xposition Yposition Zposition Zrotation Xrotation Yrotation
  JOINT LHipJoint
  {
    OFFSET 0 0 0
    CHANNELS 3 Zrotation Xrotation Yrotation
    JOINT LeftUpLeg
    {
      OFFSET 1.8 -1.4 0.085
      CHANNELS 3 Zrotation Xrotation Yrotation
      JOINT LeftLeg
      {
        OFFSET 2.215 -6 0
        CHANNELS 3 Zrotation Xrotation Yrotation
        JOINT LeftFoot
        {
          OFFSET 2.5 -6.9 0
          CHANNELS 3 Zrotation Xrotation Yrotation
          JOINT LeftToeBase
          {
            OFFSET 0.2 -0.5 1.95
            CHANNELS 3 Zrotation Xrotation Yrotation
            End Site
            {
              OFFSET 0 0 1
            }
          }
        }
      }
    }
  }
  JOINT RHipJoint
  {
    OFFSET 0 0 0
    CHANNELS 3 Zrotation Xrotation Yrotation
    JOINT RightUpLeg
    {
      OFFSET -1.8 -1.4 0.085
      CHANNELS 3 Zrotation Xrotation Yrotation
      JOINT RightLeg
      {
        OFFSET -2.215 -6 0
        CHANNELS 3 Zrotation Xrotation Yrotation
        JOINT RightFoot
        {
          OFFSET -2.5 -6.9 0
          CHANNELS 3 Zrotation Xrotation Yrotation
          JOINT RightToeBase
          {
            OFFSET -0.2 -0.5 1.95
            CHANNELS 3 Zrotation Xrotation Yrotation
            End Site
            {
              OFFSET 0 0 1
            }
          }
        }
      }
    }
  }
  JOINT LowerBack
  {
    OFFSET 0 0 0
    CHANNELS 3 Zrotation Xrotation Yrotation
    JOINT Spine
    {
      OFFSET -0.087 1.94 -0.2889
      CHANNELS 3 Zrotation Xrotation Yrotation
      JOINT Spine1
      {
        OFFSET 0 1.95 0.06
        CHANNELS 3 Zrotation Xrotation Yrotation
        JOINT Neck
        {
          OFFSET 0 0 0
          CHANNELS 3 Zrotation Xrotation Yrotation
          JOINT Neck1
          {
            OFFSET 0 1.6 0.34
            CHANNELS 3 Zrotation Xrotation Yrotation
            JOINT Head
            {
              OFFSET 0 1.667 -0.24
              CHANNELS 3 Zrotation Xrotation Yrotation
              End Site
              {
                OFFSET 0 1.686 -0.12
              }
            }
          }
        }
        JOINT LeftShoulder
        {
          OFFSET 0 0 0
          CHANNELS 3 Zrotation Xrotation Yrotation
          JOINT LeftArm
          {
            OFFSET 2.7 1.55 -0.73
            CHANNELS 3 Zrotation Xrotation Yrotation
            JOINT LeftForeArm
            {
              OFFSET 5.45 0 0
              CHANNELS 3 Zrotation Xrotation Yrotation
              JOINT LeftHand
              {
                OFFSET 3.45 0 0
                CHANNELS 3 Zrotation Xrotation Yrotation
                JOINT LeftFingerBase
                {
                  OFFSET 0 0 0
                  CHANNELS 3 Zrotation Xrotation Yrotation
                  JOINT LeftHandIndex1
                  {
                    OFFSET 0.75 0 0
                    CHANNELS 3 Zrotation Xrotation Yrotation
                    End Site
                    {
                      OFFSET 0.6 0 0
                    }
                  }
                }
                JOINT LThumb
                {
                  OFFSET 0 0 0
                  CHANNELS 3 Zrotation Xrotation Yrotation
                  End Site
                  {
                    OFFSET 0.59 0 0.59
                  }
                }
              }
            }
          }
        }
        JOINT RightShoulder
        {
          OFFSET 0 0 0
          CHANNELS 3 Zrotation Xrotation Yrotation
          JOINT RightArm
          {
            OFFSET -2.7 1.55 -0.73
            CHANNELS 3 Zrotation Xrotation Yrotation
            JOINT RightForeArm
            {
              OFFSET -5.45 0 0
              CHANNELS 3 Zrotation Xrotation Yrotation
              JOINT RightHand
              {
                OFFSET -3.45 0 0
                CHANNELS 3 Zrotation Xrotation Yrotation
                JOINT RightFingerBase
                {
                  OFFSET 0 0 0
                  CHANNELS 3 Zrotation Xrotation Yrotation
                  JOINT RightHandIndex1
                  {
                    OFFSET -0.75 0 0
                    CHANNELS 3 Zrotation Xrotation Yrotation
                    End Site
                    {
                      OFFSET -0.6 0 0
                    }
                  }
                }
                JOINT RThumb
                {
                  OFFSET 0 0 0
                  CHANNELS 3 Zrotation Xrotation Yrotation
                  End Site
                  {
                    OFFSET -0.59 0 0.59
                  }
                }
              }
            }
          }
        }
      }
    }
  }
}
MOTION
Frames:	4
Frame Time:	0.00833333
6.43489 17.5095 5.56154 10.09 -11.5079 -65.1781 -1.59028e-015 -3.97569e-015 -3.18055e-015 -19.6883 -20.0793 -5.01187 -5.74377 26.9451 26.4132 -17.4187 8.70807 20.2105 -1.59028e-015 2.22639e-014 -9.54166e-014 -1.59028e-015 -3.97569e-015 -3.18055e-015 -8.62634 -28.1439 -6.06685 -5.17807 43.8457 13.8796 26.7574 -21.8366 -1.32331 -3.18055e-015 1.35174e-013 1.81292e-013 -1.59028e-015 -3.97569e-015 -3.18055e-015 20.9883 9.50033 9.24464 -35.5478 -6.08005 15.3694 -2.69335 -12.0585 4.37619 -4.65965 24.8345 5.63015 4.26296 15.4704 10.9489 0.341825 -1.0157e-010 3.50353 -69.1456 -1.36185 20.5739 29.6829 15.6693 -70.7179 15.7031 -0.26103 14.887 3.33487e-006 8.19936e-009 2.28658e-008 -1.09256e-009 -5.20817e-008 -1.15619e-008 3.18055e-015 -3.18055e-015 -3.18055e-015 -1.80311 -0.0515673 -4.23829 109.725 13 21.3814 10.2013 6.69143 39.6476 -5.38855 -0.000753339 0.0355374 2.49906e-006 9.34828e-006 -1.84077e-006 -1.19175e-030 1.43125e-014 4.77083e-015 -3.31043e-031 3.97569e-015 4.77083e-015 
6.50505 17.5568 5.67649 13.7887 -12.5637 -64.0675 -1.59028e-015 0 -0 -22.5675 -15.4761 -6.01115 -8.91027 27.2783 29.472 -19.765 6.42222 24.8572 1.59028e-015 1.59028e-014 -1.04958e-013 -1.59028e-015 0 -0 -15.743 -31.9435 -7.08407 -7.42044 45.6488 16.6199 27.0673 -18.3057 1.97989 -4.35211e-028 1.35174e-013 1.84472e-013 -1.59028e-015 0 -0 19.179 10.1626 11.0712 -38.6805 -6.29428 16.9576 -2.87421 -12.4127 4.49696 -4.89299 24.4724 5.80307 4.40018 15.7488 11.1107 0.341825 -1.01568e-010 3.50353 -65.8146 -4.23774 23.0117 33.2828 14.5862 -74.1378 14.7068 -0.383873 20.4122 3.33487e-006 8.19936e-009 2.28659e-008 -1.09255e-009 -5.20817e-008 -1.15619e-008 -3.18055e-015 -6.36111e-015 9.54166e-015 -3.5104 -0.0934973 -5.30085 110.143 20.1958 21.186 11.0958 8.15018 42.0548 -5.38855 -0.000752694 0.0355493 2.49906e-006 9.34828e-006 -1.84077e-006 -5.07599e-031 9.14409e-015 3.18055e-015 -1.59028e-015 -3.97569e-015 -1.59028e-015 
6.58233 17.6051 5.77289 18.0099 -14.0064 -62.1277 -3.18055e-015 -3.97569e-015 3.18055e-015 -25.2548 -10.3214 -7.00374 -12.4562 27.6155 31.8516 -22.7137 4.3605 30.0422 1.98785e-015 1.90833e-014 -1.00983e-013 -3.18055e-015 -3.97569e-015 3.18055e-015 -23.6931 -35.9643 -8.32412 -10.0735 47.6957 19.6305 26.708 -14.6341 5.30295 -4.44922e-028 1.43125e-013 1.78111e-013 -3.18055e-015 -3.97569e-015 3.18055e-015 16.5837 10.6908 12.8802 -41.5367 -6.40733 18.3924 -2.96918 -12.7856 4.58619 -5.0194 24.0941 5.914 4.31865 16.0431 11.3196 0.341825 -1.01569e-010 3.50353 -62.4113 -7.65543 24.5187 39.0678 15.4366 -75.9962 14.703 -0.456387 27.1823 3.33487e-006 8.19936e-009 2.28658e-008 -1.09254e-009 -5.20817e-008 -1.15619e-008 -1.76556e-031 3.18055e-015 3.18055e-015 -5.01717 -0.108315 -6.42183 109.831 27.7217 21.5239 11.6513 9.53307 44.7541 -5.38855 -0.00075204 0.0355609 2.49906e-006 9.34828e-006 -1.84077e-006 -2.78299e-015 9.74045e-015 -0 -3.57812e-015 -1.39149e-015 -0 
6.59436 17.5193 5.84133 17.043 -15.7839 -64.8913 0 1.59028e-015 -0 -25.6511 -10.4062 -6.62865 -12.5829 28.2474 31.0579 -21.8094 2.59542 28.5502 2.11868e-029 1.27222e-014 -9.54166e-014 0 1.59028e-015 -0 -23.1751 -36.5551 -8.097 -10.7787 48.3021 19.7976 27.4114 -13.9998 6.58732 3.18055e-015 1.39944e-013 1.84472e-013 0 1.59028e-015 -0 16.8286 11.6315 12.8902 -41.9351 -6.08626 18.9269 -3.03924 -13.1293 4.65934 -5.11304 23.7461 6.00059 4.19851 16.3295 11.5121 0.341825 -1.0157e-010 3.50353 -59.1753 -11.0286 25.7194 44.9992 16.6938 -77.5161 15.0134 -0.502753 33.4068 3.33487e-006 8.19936e-009 2.28658e-008 -1.09255e-009 -5.20817e-008 -1.15619e-008 3.53113e-031 -6.36111e-015 3.18055e-015 -6.31085 -0.108111 -7.52092 108.949 34.9271 22.4235 11.8703 10.746 47.507 -5.38855 -0.000751377 0.0355723 2.49906e-006 9.34828e-006 -1.84077e-006 -3.18055e-015 1.03368e-014 -0 3.18055e-015 -1.19271e-015 -0 
